<?xml version="1.0" standalone="no"?><!DOCTYPE svg PUBLIC "-//W3C//DTD SVG 1.1//EN" "http://www.w3.org/Graphics/SVG/1.1/DTD/svg11.dtd"><svg t="1624159257697" class="icon" viewBox="0 0 1024 1024" version="1.1" xmlns="http://www.w3.org/2000/svg" p-id="591" xmlns:xlink="http://www.w3.org/1999/xlink" width="64" height="64"><defs><style type="text/css"></style></defs><path d="M0 0h1024v1024H0z" fill="#009C3D" p-id="592"></path><path d="M566.272 213.333333c63.232 0 108.288 7.168 145.92 23.253334v51.2c-36.138667-21.930667-81.237333-31.744-145.92-31.744a271.445333 271.445333 0 0 0-186.368 73.898666c-49.749333 46.72-78.293333 109.909333-78.293333 173.226667v14.762667c0 67.029333 24.917333 129.365333 70.272 175.36 45.44 46.336 107.178667 71.765333 173.824 71.765333 102.314667 0 154.453333-36.906667 176.469333-58.88l0.170667-0.213333v-185.813334h-187.733334v-45.653333H768v245.674667c-1.536 2.133333-18.645333 25.386667-57.258667 48.426666-46.848 27.904-102.4 42.069333-165.034666 42.069334a286.72 286.72 0 0 1-205.226667-84.906667C285.994667 670.848 256 597.034667 256 517.930667v-14.762667C256 346.069333 398.08 213.333333 566.272 213.333333z m0 76.288c59.733333 0 104.746667 9.898667 145.92 32v53.973334c-35.285333-29.013333-76.373333-40.32-145.92-40.32-100.522667 0-185.472 76.928-185.472 167.893333v14.762667c0 45.44 17.109333 87.808 48.213333 119.253333a162.730667 162.730667 0 0 0 116.693334 48.64c55.893333 0 85.674667-11.946667 100.010666-17.706667l0.426667-0.085333v-68.693333H534.613333V553.813333h154.112v137.045334c-9.856 9.728-48.64 40.618667-143.061333 40.618666-116.053333 0-210.517333-95.786667-210.517333-213.504v-14.762666c0-56.490667 24.32-109.994667 68.394666-150.613334a239.146667 239.146667 0 0 1 162.688-62.933333z" fill="#FFFFFF" p-id="593"></path></svg>